<svg width="260" height="41" viewBox="0 0 260 41" fill="none" xmlns="http://www.w3.org/2000/svg">
<path d="M187.778 0H179.111V31.7778H187.778V0Z" fill="white"/>
<path d="M216.666 31.7777H209.444V27.7333C208.289 29.0333 207.133 30.0444 205.689 30.9111C204.244 31.6333 202.655 31.9222 201.066 31.9222C199.044 32.0666 197.022 31.2 195.577 29.7555C194.133 27.8777 193.411 25.5666 193.555 23.2555V8.66663H202.222V21.3777C202.077 22.3888 202.366 23.5444 202.944 24.4111C203.522 24.9888 204.244 25.2777 205.111 25.2777C205.977 25.2777 206.844 24.8444 207.277 24.1222C208 23.4 208 21.9555 208 19.9333V8.66663H216.666V31.7777Z" fill="white"/>
<path d="M222.444 40.4445V8.66672H229.667V12.2778C230.678 11.2667 231.833 10.2556 233.133 9.38894C234.433 8.66672 236.022 8.37783 237.467 8.37783C240.211 8.23339 242.955 9.53339 244.544 11.8445C246.278 14.3001 247.144 17.3334 247 20.3667C247.289 23.4001 246.278 26.4334 244.4 28.8889C242.667 30.7667 240.211 31.9223 237.611 31.7778C236.455 31.7778 235.155 31.6334 234 31.0556C232.844 30.6223 231.111 29.9001 231.111 29.0334V40.4445H222.444ZM230.967 20.3667C230.822 21.8112 231.255 23.1112 232.122 24.2667C232.844 25.1334 233.855 25.5667 235.011 25.5667C236.022 25.5667 236.889 25.1334 237.467 24.4112C238.189 23.1112 238.622 21.6667 238.478 20.2223C238.622 18.7778 238.189 17.3334 237.467 16.1778C236.889 15.3112 235.878 14.8778 234.867 14.8778C233.855 14.8778 232.844 15.3112 232.122 16.1778C231.255 17.3334 230.822 18.7778 230.967 20.3667Z" fill="white"/>
<path d="M251.333 0H260V7.22222H251.333V0ZM251.333 8.66667H260V31.7778H251.333V8.66667Z" fill="white"/>
<path d="M30.333 8.66667H38.9997V12.7111C38.9997 11.2667 40.8775 10.1111 42.033 9.53334C43.333 8.81112 44.7775 8.52223 46.2219 8.52223C48.2441 8.37779 50.2663 9.24445 51.5663 10.6889C52.8663 12.1333 53.4441 14.3 53.4441 17.1889V31.7778H44.7775V19.0667C44.9219 18.0556 44.633 16.9 44.0552 16.0333C43.4775 15.4556 42.7552 15.1667 41.8886 15.1667C41.0219 15.1667 40.1552 15.6 39.7219 16.3222C38.9997 17.1889 38.9997 18.6333 38.9997 20.6556V31.7778H30.333V8.66667Z" fill="white"/>
<path d="M76.8439 20.3667C76.6995 17.1889 77.9994 14.1556 80.3106 11.9889C82.9106 9.67784 86.2328 8.52228 89.6994 8.66673C94.1772 8.66673 97.4994 9.96672 99.8106 12.5667C103.711 17.3334 103.422 24.2667 99.0883 28.7445C96.4883 31.0556 93.0217 32.2112 89.555 32.0667C86.3772 32.2112 83.3439 31.2001 80.8883 29.3223C78.1439 27.0112 76.6995 23.6889 76.8439 20.3667ZM85.3661 20.2223C85.2217 21.8112 85.655 23.4001 86.5217 24.7001C87.2439 25.5667 88.3995 26.1445 89.555 26.1445C90.7106 26.1445 91.8661 25.7112 92.5883 24.7001C93.455 23.4001 93.8883 21.8112 93.7439 20.2223C93.8883 18.6334 93.455 17.1889 92.5883 15.8889C91.8661 15.0223 90.7106 14.4445 89.555 14.4445C88.3995 14.4445 87.2439 15.0223 86.5217 15.8889C85.655 17.1889 85.2217 18.7778 85.3661 20.2223Z" fill="white"/>
<path d="M106.889 8.66667H115.555V12.7111C117 11.2667 117.433 10.1111 118.733 9.53334C120.033 8.81112 121.478 8.52223 122.922 8.52223C124.944 8.37779 126.822 9.24445 128.266 10.6889C129.566 12.1333 130 14.3 130 17.1889V31.7778H121.333V19.0667C121.478 18.0556 121.333 17.0445 120.755 16.0333C120.178 15.4556 119.455 15.1667 118.589 15.1667C117.722 15.1667 116.855 15.6 116.278 16.3222C115.555 17.0445 115.555 18.4889 115.555 20.5111V31.7778H106.889V8.66667Z" fill="white"/>
<path d="M135.777 0H144.444V7.22222H135.777V0ZM135.777 8.66667H144.444V31.7778H135.777V8.66667Z" fill="white"/>
<path d="M148.777 20.3667C148.633 17.1889 149.933 14.1556 152.244 11.9889C154.844 9.67784 158.166 8.52228 161.633 8.66673C166.111 8.66673 169.433 9.96672 171.744 12.5667C175.644 17.3334 175.355 24.2667 171.022 28.7445C168.422 31.0556 164.955 32.2112 161.489 32.0667C158.311 32.2112 155.277 31.2001 152.822 29.3223C150.222 27.0112 148.633 23.6889 148.777 20.3667ZM157.3 20.2223C157.155 21.8112 157.589 23.4001 158.455 24.7001C159.177 25.5667 160.333 26.1445 161.489 26.1445C162.644 26.1445 163.8 25.7112 164.522 24.7001C165.389 23.4001 165.822 21.8112 165.677 20.2223C165.822 18.6334 165.389 17.1889 164.522 15.8889C163.8 15.0223 162.644 14.4445 161.489 14.4445C160.333 14.4445 159.177 15.0223 158.455 15.8889C157.733 17.1889 157.3 18.7778 157.3 20.2223Z" fill="white"/>
<path d="M15.8889 19.789L13.2889 20.6557C12.8556 20.8001 12.5667 20.8001 12.1333 20.9446C11.4111 21.089 10.6889 21.6668 10.2556 22.2446C9.82222 22.8223 9.67778 23.5445 9.82222 24.2668C9.82222 24.989 10.1111 25.7112 10.6889 26.289C11.2667 26.8668 11.9889 27.1557 12.8556 27.0112C13.8667 27.1557 14.7333 26.7223 15.4556 26.0001C15.8889 25.4223 16.0333 24.5557 16.0333 23.8334V19.789H15.8889ZM23.9778 13.289C24.2667 14.1557 24.5556 15.1668 24.5556 16.0334V31.2001H18.7778H17.4778H15.8889V28.889C14.4444 29.7557 14.1556 30.3334 13.2889 30.7668C11.5556 31.489 9.82222 31.7779 8.08889 31.7779C5.92222 31.9223 3.75556 31.3446 2.02222 29.9001C0.722222 28.7446 0 27.0112 0 25.2779C0 23.689 0.433333 22.2446 1.44444 21.089C3.03333 19.789 4.91111 18.9223 6.93333 18.6334C10.1111 17.9112 12.2778 17.4779 13.1444 17.3334C14.1556 17.0446 15.1667 16.7557 16.1778 16.3223C16.3222 15.4557 16.0333 14.7334 15.4556 14.1557C14.7333 13.7223 14.0111 13.4334 13.1444 13.5779C11.9889 13.5779 10.9778 13.7223 9.96667 14.3001C9.38889 14.7334 8.81111 15.4557 8.66667 16.3223H0.433333C0.722222 14.8779 1.15556 13.4334 1.73333 12.1334C2.45556 11.2668 3.32222 10.5446 4.33333 9.96677C5.34444 9.389 6.5 9.10011 7.51111 8.95566C8.95556 8.66677 10.5444 8.52233 11.9889 8.66677C14.0111 8.66677 16.1778 8.81122 18.2 9.10011C19.6444 9.389 20.9444 9.96677 22.1 10.8334C23.1111 11.4112 23.6889 12.2779 23.9778 13.289Z" fill="white"/>
<path d="M67.8895 0.577794V8.66668H73.6672V15.8889H67.8895V23.2556C67.8895 23.9778 68.0339 24.5556 68.3228 25.1333C68.7561 25.7111 69.4783 25.8556 70.2006 25.8556H73.5228V31.7778C71.645 32.0667 69.7672 32.3556 67.8895 32.2111C66.1561 32.2111 64.2783 31.7778 62.6895 31.0556C61.5339 30.4778 60.6672 29.6111 60.0894 28.6C59.3672 26.8667 59.0783 24.9889 59.0783 23.1111V15.8889H56.1895V8.66668H59.0783V0.43335L67.8895 0.577794Z" fill="white"/>
</svg>
