<svg width="260" height="62" viewBox="0 0 260 62" fill="none" xmlns="http://www.w3.org/2000/svg">
<path d="M180.74 0C180.739 0.0882687 180.735 0.263488 180.732 0.351757C183.127 0.384693 185.524 0.371519 187.919 0.362297C189.026 2.87071 190.023 5.4226 191.043 7.96789C192.148 10.6397 193.212 13.3286 194.266 16.0227C194.31 16.0175 194.396 16.0096 194.439 16.0056C194.357 16.1295 194.355 16.2559 194.43 16.3837C195.381 18.7209 196.316 21.0646 197.275 23.3991C197.331 23.3899 197.443 23.3714 197.498 23.3622C197.459 23.4044 197.377 23.49 197.337 23.5322C197.571 24.2172 197.887 24.8694 198.1 25.5623C198.149 25.4965 198.245 25.366 198.294 25.3015C198.248 25.4201 198.211 25.5413 198.181 25.6638C198.701 27.0352 199.335 28.3632 199.804 29.7531C199.863 29.7057 199.982 29.6082 200.041 29.5608C199.991 29.6108 199.891 29.711 199.841 29.761C200.756 32.1087 201.765 34.4208 202.632 36.787C202.784 36.7672 202.96 36.6236 203.105 36.7448C203.002 36.7909 202.797 36.8845 202.694 36.9306C202.942 37.3956 203.1 37.9015 203.342 38.3705C203.884 37.3192 204.23 36.1796 204.727 35.1072C206.881 29.8098 209.063 24.5242 211.221 19.2281C211.289 19.0371 211.384 18.8539 211.487 18.6774C211.459 18.5153 211.429 18.3546 211.401 18.1952C211.447 18.2584 211.541 18.3862 211.588 18.4508C211.628 18.323 211.707 18.0674 211.746 17.9396L211.522 17.9383C211.613 17.9027 211.707 17.8645 211.803 17.8237C212.264 16.5971 212.805 15.4022 213.298 14.1875C213.344 14.0835 213.39 13.9017 213.546 13.928C215.966 13.9372 218.387 13.9372 220.809 13.9372C220.646 14.5959 220.347 15.2072 220.086 15.8304C219.523 17.2756 218.883 18.6879 218.332 20.1384C217.299 22.382 216.443 24.7007 215.459 26.9654C215.523 26.9786 215.654 27.0036 215.72 27.0168C215.651 27.0221 215.514 27.0326 215.446 27.0379C212.446 34.3088 209.454 41.5864 206.494 48.8745C206.287 49.3264 205.989 49.7914 206.18 50.3052C206.142 50.2091 206.064 50.0154 206.026 49.9179C205.827 50.516 205.544 51.0799 205.329 51.6714C205.224 51.8308 205.338 51.9863 205.408 52.1299C205.359 52.0746 205.262 51.9639 205.213 51.9086C204.797 53.089 204.242 54.2167 203.801 55.3893C203.629 55.7384 203.575 56.1705 203.266 56.4314C202.216 53.9559 201.266 51.4409 200.228 48.9601C199.152 46.2172 197.99 43.5086 196.947 40.7525C196.136 38.8488 195.409 36.9121 194.606 35.0045C194.421 35.1349 194.46 35.372 194.41 35.5631C194.442 35.3496 194.392 35.0927 194.576 34.9346C194.432 34.5855 194.301 34.2324 194.202 33.8688C194.145 33.9281 194.031 34.0454 193.973 34.1033C194.013 34.0361 194.095 33.9004 194.136 33.8319C193.137 31.3209 192.091 28.8283 191.112 26.3093C190.914 25.897 190.788 25.4504 190.541 25.0644C189.696 22.5928 188.582 20.2214 187.617 17.796C185.515 12.5447 183.401 7.29732 181.282 2.05389C181.128 1.70477 180.993 1.34643 180.883 0.981495C180.832 1.02497 180.734 1.1106 180.685 1.15408C180.718 1.09348 180.784 0.97359 180.815 0.912988C180.769 0.785196 180.726 0.658721 180.684 0.530929C180.701 0.354392 180.72 0.177855 180.74 0Z" fill="white"/>
<path d="M178.544 10.2075C178.665 10.1996 178.789 10.193 178.916 10.1864C181.848 17.7393 184.842 25.2685 187.783 32.8161C188.241 34.0492 188.803 35.2402 189.26 36.4733C189.824 37.8105 190.279 39.1912 190.868 40.5179C192.068 43.8418 193.476 47.0906 194.687 50.4119C194.722 50.3631 194.793 50.267 194.829 50.2195C194.633 50.7966 195.257 51.255 195.164 51.8215C192.804 51.7267 190.431 51.8413 188.072 51.7649C187.523 50.682 187.162 49.5002 186.695 48.3764C186.191 47.2303 185.811 46.0314 185.293 44.8931C185.087 44.7666 184.832 44.818 184.608 44.8088C180.199 44.8351 175.788 44.7825 171.381 44.8325C170.352 47.1473 169.298 49.4502 168.264 51.7609C164.756 51.8255 161.246 51.7636 157.738 51.7926C157.298 51.8835 157.162 51.3855 156.951 51.1141C156.536 50.3842 155.997 49.7347 155.59 49.0035C155.535 49.0576 155.427 49.1682 155.372 49.2235C155.412 49.1643 155.493 49.0431 155.532 48.9838C154.947 48.0062 154.252 47.1011 153.673 46.1197C152.733 44.8075 151.915 43.4123 150.981 42.0949C150.162 40.7708 149.307 39.4718 148.421 38.1926C148.409 42.7154 148.429 47.2382 148.412 51.7609C146.082 51.8005 143.748 51.8123 141.419 51.757C141.35 48.5582 141.408 45.3555 141.387 42.1555C141.391 33.106 141.386 24.0564 141.392 15.0069C141.454 14.671 141.222 14.1321 141.541 13.9372C145.14 13.9385 148.742 13.9332 152.342 13.9345C153.835 13.9569 155.368 13.8436 156.81 14.3179C157.416 14.4523 157.97 14.7592 158.585 14.8581L158.597 15.0161C158.792 14.9872 158.989 14.9569 159.188 14.9252C159.093 14.9516 158.902 15.0043 158.808 15.0306C161.232 16.186 163.297 18.2017 164.27 20.7312C165.25 23.1658 165.341 25.889 164.876 28.4488C164.403 30.9994 163.091 33.4221 161.059 35.061C160.1 35.9385 158.892 36.4602 157.717 36.9766C157.133 37.2454 156.49 37.3244 155.891 37.5418C157.055 39.2004 158.213 40.8631 159.357 42.5349C159.461 42.4585 159.574 42.3847 159.684 42.3096C159.618 42.3715 159.485 42.4954 159.419 42.5586C159.767 43.1436 160.24 43.6442 160.561 44.2476C160.656 44.1712 160.753 44.0947 160.855 44.0183C160.794 44.0776 160.674 44.1962 160.615 44.2555C160.997 44.8799 161.452 45.457 161.868 46.0604C162.151 46.4279 162.365 46.8548 162.72 47.1657C163.258 46.0393 163.707 44.8747 164.196 43.7285C164.934 42.1634 165.508 40.5284 166.25 38.9659C166.201 38.9594 166.104 38.9488 166.055 38.9435C166.11 38.933 166.218 38.9119 166.272 38.9027C167.273 36.5102 168.327 34.1362 169.329 31.745C169.318 31.6963 169.3 31.6014 169.289 31.554C169.329 31.5593 169.405 31.5698 169.443 31.5751C169.856 30.5172 170.292 29.4672 170.766 28.4356C170.758 28.3987 170.742 28.3263 170.734 28.2894C170.982 28.1102 171.027 27.7808 171.152 27.5187C173.608 21.7456 176.127 15.9963 178.544 10.2075ZM148.412 20.9631C148.418 24.2396 148.427 27.516 148.408 30.7925C150.251 30.9006 152.099 30.9809 153.944 30.8926C155.074 30.8465 156.264 30.4711 156.993 29.5594C157.978 28.3368 158.129 26.6755 158.075 25.1618C158.064 24.1131 157.776 23.0486 157.149 22.1988C156.451 21.3056 155.298 20.884 154.185 20.917C152.261 20.9433 150.331 20.8524 148.412 20.9631ZM176.003 33.9873C176.053 34.0466 176.154 34.1665 176.206 34.2271C176.144 34.1731 176.021 34.0651 175.959 34.011C175.442 35.2652 174.895 36.5076 174.365 37.7578C175.801 37.9107 177.252 37.7947 178.694 37.8303C179.993 37.7934 181.3 37.9186 182.594 37.7578C182.334 37.2335 182.162 36.6749 181.96 36.1295C181.91 36.1466 181.81 36.1822 181.759 36.1993C181.887 36.1045 181.915 35.9872 181.844 35.8462C180.817 33.1139 179.731 30.4039 178.756 27.6531C177.818 29.7557 176.929 31.8794 176.003 33.9873Z" fill="white"/>
<path d="M0.0540151 10.5725C1.382 10.674 2.70076 10.9098 4.03533 10.9664C4.15785 10.832 4.49907 10.7095 4.48721 11.0389C9.562 11.5935 14.65 12.0797 19.7274 12.6238L19.7472 12.4024C19.7472 12.4604 19.7485 12.575 19.7485 12.6317C21.5573 12.8609 23.3833 12.9294 25.1816 13.2535C25.893 13.3787 26.6585 13.2627 27.3369 13.5433C27.9772 13.9768 28.6201 14.4076 29.242 14.8687C29.4409 14.791 29.6398 14.8608 29.8137 14.9662C29.7518 14.982 29.6253 15.011 29.5621 15.0268C30.7333 15.9424 32.0231 16.6973 33.2338 17.5615C33.2971 17.5181 33.4222 17.4311 33.4854 17.389C33.4314 17.4338 33.3234 17.5247 33.2707 17.5708C35.625 19.1978 37.9885 20.8143 40.373 22.3966C40.3915 22.3281 40.4284 22.191 40.4468 22.1225C40.435 22.1989 40.4126 22.3518 40.4007 22.4282C42.2359 23.6929 44.1133 24.8944 45.9392 26.1737C46.4227 26.5202 46.9603 26.7995 47.3937 27.2092C47.8627 27.856 48.2592 28.5517 48.7059 29.2143C48.7796 29.4067 48.9759 29.4699 49.1683 29.4554C49.1209 29.4936 49.0273 29.57 48.9799 29.6082C49.188 30.0404 49.5069 30.4053 49.744 30.8216C49.8626 30.9942 49.9456 31.2129 50.1432 31.313C50.3224 31.8663 50.7215 32.3327 51.0272 32.8254C52.2327 34.7291 53.4816 36.6039 54.6699 38.5168C55.1139 39.1821 55.5882 39.8356 55.9281 40.5641C55.268 40.2321 54.6871 39.767 54.0626 39.3758C50.3935 36.8489 46.7007 34.3589 43.0224 31.8453C40.3902 30.0746 37.7566 28.3066 35.1546 26.4912C35.1164 26.5083 35.0413 26.5452 35.0031 26.5623C34.7146 26.0116 34.0598 25.8193 33.5895 25.4517C31.0152 23.6389 28.3724 21.9223 25.7889 20.1213C25.4029 19.875 25.0591 19.514 24.5888 19.4415C22.7786 19.2268 20.9711 18.9844 19.1609 18.7578C17.8369 18.5378 16.4891 18.4666 15.169 18.2203C16.0109 19.3388 17.0174 20.3176 17.9581 21.3505C18.8421 22.3478 19.7788 23.299 20.6496 24.3082C22.0988 25.7205 23.3319 27.3436 24.8061 28.7295C25.1039 29.1089 25.4398 29.4567 25.7349 29.8401C25.8008 29.7624 25.8654 29.6847 25.9299 29.6069L25.8548 29.9205L26.1723 29.8335C26.088 29.9007 26.005 29.9692 25.922 30.039C28.0049 32.1931 29.9955 34.4354 32.0428 36.6236C33.8043 38.584 35.6395 40.4785 37.3798 42.4586C37.4971 42.6522 37.609 42.6417 37.7158 42.4283C37.6868 42.5021 37.6275 42.6509 37.5985 42.726C38.501 43.664 39.406 44.6021 40.2518 45.5928C40.3651 45.7285 40.4995 45.8444 40.6352 45.959C41.5179 47.0354 42.556 47.9708 43.4875 49.0036C44.2687 46.6454 45.0341 44.2832 45.793 41.9171C45.7298 41.929 45.6046 41.9514 45.5414 41.9619C45.7706 41.8815 45.8892 41.676 46.0275 41.4942C46.3397 41.6457 46.5426 41.9395 46.7969 42.1661C48.7678 43.8696 51.2248 45.0105 53.807 45.3754C55.8003 45.6152 57.8608 45.3991 59.7302 44.6508C61.0977 44.1713 62.3019 43.3241 63.4019 42.398C64.0211 41.8802 64.5033 41.2294 65.0474 40.6379C65.3965 40.1847 65.776 39.7433 66.0197 39.2203C66.7035 38.2138 67.1896 37.0755 67.5203 35.9069C67.3187 35.6408 67.5624 35.4063 67.6783 35.1692C67.8733 33.9966 67.9998 32.803 67.8931 31.6134C67.6731 27.9509 65.6798 24.4952 62.7814 22.2872C62.709 22.3017 62.564 22.3281 62.4916 22.3425C62.5495 22.3149 62.6655 22.2595 62.7221 22.2306C59.9884 19.904 56.098 18.9765 52.6226 19.9316C52.0403 20.0858 51.4883 20.3321 50.8981 20.4573C50.9547 20.5047 51.0667 20.5983 51.1221 20.6444C50.9666 20.6062 50.7953 20.5179 50.6425 20.6114C49.4739 21.1213 48.337 21.726 47.3397 22.5244C46.8983 22.8405 46.5308 23.245 46.0907 23.5625C46.1645 23.6376 46.2409 23.7114 46.3187 23.7851L46.0499 23.7456L46.096 24.0025C46.0262 23.9301 45.9577 23.8576 45.8879 23.7865C45.764 24.075 45.4294 24.0038 45.241 23.851C43.3939 22.6087 41.5153 21.4124 39.6616 20.1819C39.4297 20.0462 39.6893 19.8275 39.7815 19.6945C40.3467 19.0608 40.8842 18.3929 41.5508 17.8593C41.4915 17.8105 41.3743 17.7117 41.3163 17.663C41.3809 17.6972 41.5087 17.7671 41.5732 17.8013C41.8235 17.5892 42.0778 17.3797 42.3426 17.1834C42.3163 17.1057 42.2649 16.9503 42.2399 16.8725C42.2925 16.9239 42.3966 17.024 42.4493 17.0754C44.602 15.2705 47.1355 13.9109 49.8323 13.127C49.7756 13.0822 49.661 12.9913 49.6044 12.9465C49.798 12.9795 49.993 13.0111 50.188 13.0401C50.1854 12.9979 50.1774 12.911 50.1735 12.8675C50.5068 12.9821 50.8441 12.7937 51.1734 12.7437C54.2984 12.0744 57.5749 12.1534 60.6656 12.961C63.8551 13.9478 66.7996 15.7316 69.1407 18.1136C70.1327 19.0384 70.9535 20.1253 71.8125 21.17C71.8428 21.1173 71.906 21.0106 71.9363 20.9579C71.9126 21.0976 71.8112 21.2649 71.939 21.3887C73.4738 23.6494 74.6107 26.2237 75.0178 28.9363C75.0771 28.9245 75.197 28.8995 75.2563 28.8863C74.8347 28.9601 75.1403 29.4857 75.1206 29.769C75.5659 34.2088 74.7754 38.8317 72.5463 42.7287C72.4225 42.9315 72.2999 43.1397 72.2499 43.3742C71.8467 43.697 71.6478 44.195 71.3092 44.5757C71.3698 44.5823 71.491 44.5942 71.5516 44.5994L71.379 44.5915L71.4291 44.7457C71.3949 44.7101 71.3277 44.6403 71.2947 44.6047C70.3712 45.8115 69.2922 46.8878 68.1447 47.8799C68.1698 47.9233 68.2225 48.009 68.2488 48.0524C68.1553 48.0353 67.9682 47.9997 67.8733 47.9826C67.8483 48.1447 67.8259 48.308 67.8048 48.4714C67.7996 48.395 67.789 48.2435 67.7837 48.1684C67.0776 48.7573 66.2661 49.1999 65.5112 49.7177C65.4967 49.7493 65.4664 49.8139 65.4506 49.8468C64.8011 49.8837 64.3255 50.5042 63.6865 50.6307C63.697 50.661 63.7194 50.7216 63.73 50.7519C63.6022 50.7242 63.4797 50.74 63.365 50.7993C62.4916 51.1827 61.6115 51.5674 60.684 51.7993C60.6893 51.8467 60.6999 51.9415 60.7051 51.989C60.6024 51.9573 60.4996 51.927 60.3982 51.8967C59.6367 52.1734 58.8265 52.2801 58.0492 52.4962C58.0189 52.5278 57.9556 52.5884 57.9253 52.62C57.9372 52.5844 57.9622 52.5133 57.9741 52.4777C56.9004 52.6846 55.8069 52.7491 54.716 52.7149C53.0034 52.786 51.2946 52.4567 49.6847 51.8888C48.7124 54.7451 47.7639 57.6065 46.7943 60.4628C46.6256 60.8962 46.5808 61.4087 46.2976 61.7802C45.7706 61.4706 45.4162 60.8896 44.9788 60.4522C43.8287 59.252 42.7761 57.9491 41.5548 56.824C41.4876 56.8332 41.3532 56.8516 41.286 56.8609C41.3414 56.8358 41.4547 56.7858 41.5113 56.7607C41.1859 56.2548 40.6471 55.9268 40.3585 55.3919C40.2914 55.4723 40.2255 55.554 40.1609 55.6383L40.3032 55.3195L39.9225 55.3959C40.0068 55.33 40.0898 55.2641 40.1715 55.1969C38.9765 54.0587 37.9305 52.7742 36.7975 51.5753C35.4511 52.9797 34.1336 54.4078 32.7951 55.8175C32.8004 55.8833 32.8096 56.0138 32.8149 56.0796C32.7727 56.0546 32.6897 56.0032 32.6475 55.9782C32.1838 56.3984 31.8176 56.9162 31.3235 57.3062C31.4078 57.3747 31.4922 57.4419 31.5778 57.5091L31.2023 57.4274L31.338 57.7436C31.2721 57.6619 31.2063 57.5815 31.1391 57.5025C30.3302 58.4866 29.3921 59.3601 28.5543 60.3192C28.5569 60.389 28.5635 60.5273 28.5674 60.5971C28.5477 60.5392 28.5108 60.4219 28.4923 60.3626C28.0536 60.7934 27.6584 61.2677 27.2052 61.684C27.0682 61.8711 26.9154 61.7012 26.918 61.5325C25.5017 56.2838 24.0684 51.0404 22.6482 45.793C22.4097 44.7984 22.0817 43.8248 21.8735 42.8235L21.7483 42.8525C21.8221 42.423 21.5863 42.0317 21.5178 41.6181C20.6456 38.2652 19.6945 34.9333 18.7986 31.587C18.4205 30.7979 17.6247 30.3157 17.1228 29.6109C14.1309 26.2633 11.0389 23.0039 8.07856 19.6273C6.86651 18.3731 5.7625 17.0201 4.56099 15.7553C3.30019 14.4247 2.12504 13.0164 0.884004 11.6673C0.724594 11.4974 0.583627 11.3103 0.443978 11.1232C0.376789 11.2062 0.310917 11.2905 0.246362 11.3748L0.428169 11.0455L0 11.1377C0.0843163 11.0705 0.167315 11.0033 0.248997 10.9348C0.200251 10.8439 0.102761 10.6634 0.0540151 10.5725ZM26.5425 40.3046C27.4805 43.7339 28.3817 47.175 29.3171 50.6057C30.2933 49.4687 31.1523 48.2369 32.0982 47.0749C32.2668 46.9221 32.1364 46.6863 32.0152 46.5532C31.7069 46.2028 31.4342 45.8154 31.0798 45.5098C30.7583 45.6073 30.7373 45.5348 30.9401 45.3754C29.8111 43.8854 28.4541 42.5811 27.3132 41.0977C27.08 40.8118 26.7968 40.572 26.5425 40.3046Z" fill="white"/>
<path d="M86.2054 13.9148C87.1579 13.9952 88.1315 13.82 89.0629 14.0993C89.0774 14.0373 89.105 13.9135 89.1195 13.8529C89.1222 13.9096 89.1274 14.0242 89.1301 14.0808C89.9904 14.0558 90.819 14.3232 91.6675 14.4168C92.2313 14.4761 92.761 14.7198 93.3288 14.7409C93.5079 14.8265 93.6977 14.8937 93.8939 14.9398C94.0059 14.8067 94.164 14.7171 94.3327 14.8173C94.2194 14.8805 94.1087 14.9437 93.9994 15.0083C96.928 15.7724 99.6301 17.3428 101.81 19.4362C103.492 21.1529 104.754 23.2423 105.57 25.4951C105.627 25.5096 105.738 25.5373 105.793 25.5505C105.738 25.561 105.627 25.5808 105.572 25.5913C106.042 26.7494 106.238 27.993 106.487 29.2117C106.52 29.6161 106.53 30.0245 106.622 30.4237C106.826 32.9822 106.719 35.5881 106.075 38.082C105.59 39.9607 104.783 41.7511 103.729 43.3781C103.792 43.3808 103.92 43.3847 103.984 43.3873C103.585 43.3557 103.448 43.7931 103.237 44.0461C101.153 46.7903 98.202 48.7915 95.0125 50.0404C94.1271 50.3737 93.2313 50.6899 92.3012 50.8744C92.3196 50.9257 92.3552 51.0285 92.3723 51.0799C92.2458 50.8111 91.9455 51.0259 91.7307 51.039C89.1512 51.6622 86.4886 51.8308 83.8419 51.7874C82.2227 51.7715 80.6023 51.819 78.9845 51.7663C78.9278 47.2461 78.9963 42.7247 78.9502 38.2045C79.0108 36.0966 78.9173 33.9887 78.97 31.8808C78.9673 25.9022 78.9634 19.925 78.97 13.9478C81.3796 13.8661 83.7944 13.924 86.2054 13.9148ZM86.1553 20.7655C86.1289 28.8546 86.1408 36.9424 86.1527 45.0315C86.9616 45.0763 87.7626 44.9472 88.5688 44.9366C89.387 44.9156 90.1893 44.7456 90.985 44.5678C92.6608 44.1686 94.3221 43.5072 95.6554 42.394C96.513 41.7906 97.2482 40.987 97.8041 40.1016C97.7383 40.0871 97.6065 40.0568 97.5406 40.041C97.6777 40.0173 97.8147 39.987 97.9517 39.9528C98.9925 38.4193 99.6301 36.6433 99.9028 34.8147C99.8488 34.8055 99.7408 34.7897 99.6854 34.7805C99.7368 34.7607 99.8383 34.7186 99.8883 34.6975C100.064 33.633 100.042 32.5382 99.8738 31.4737C99.6143 29.4198 98.891 27.4278 97.7554 25.6967C97.7 25.752 97.5894 25.8614 97.5354 25.9167C97.5788 25.8522 97.6658 25.7217 97.7093 25.6572C96.733 24.3068 95.4986 23.1093 94.0073 22.3425C92.4329 21.444 90.632 21.0237 88.8442 20.8288C87.9483 20.7932 87.0512 20.7603 86.1553 20.7655Z" fill="white"/>
<path d="M223.983 13.9438C226.276 13.928 228.569 13.9504 230.863 13.9214C230.947 17.0503 230.876 20.1832 230.9 23.3134C230.9 31.2616 230.9 39.211 230.899 47.1592C230.882 48.6953 230.933 50.2328 230.871 51.7663C228.583 51.7939 226.292 51.8084 224.004 51.7597C223.966 39.1544 224.003 26.5491 223.983 13.9438Z" fill="white"/>
<path d="M234.32 14.4879C234.348 14.3075 234.261 14.0716 234.411 13.9307C242.851 13.9438 251.293 13.9267 259.732 13.9438C260.051 13.8925 259.985 14.289 260 14.4866C259.954 16.6341 260.037 18.7841 259.952 20.9316C256.834 21.0066 253.71 20.9421 250.591 20.9684C250.562 28.076 250.592 35.1837 250.579 42.2899C250.571 45.4083 250.608 48.5294 250.558 51.6464L250.45 51.7821C250.499 51.8348 250.551 51.8875 250.609 51.9402L250.339 52.122C250.363 52.0377 250.41 51.8664 250.434 51.7821C248.169 51.7742 245.902 51.8216 243.639 51.761C243.579 50.2736 243.67 48.7863 243.654 47.2989C243.656 38.6446 243.649 29.9903 243.657 21.3373C243.672 21.1674 243.633 20.8657 243.392 20.9157C241.541 20.9157 239.69 20.9105 237.841 20.9197C236.671 20.9922 235.498 20.946 234.328 20.9197C234.314 18.7762 234.322 16.6314 234.32 14.4879Z" fill="white"/>
<path d="M110.3 14.2521C110.874 14.2073 111.451 14.1915 112.027 14.2376C113.122 14.2495 114.217 14.2389 115.313 14.2429C115.916 14.2165 116.522 14.177 117.126 14.26C117.224 14.9029 117.165 15.5524 117.153 16.1993C117.156 23.0474 117.152 29.8954 117.155 36.7448C117.178 37.447 117.138 38.1571 117.302 38.8461C117.458 40.3032 117.776 41.8249 118.703 43.0013C119.133 43.5955 119.737 44.0448 120.384 44.382C120.492 44.3649 120.604 44.3385 120.714 44.3122C120.664 44.3557 120.565 44.44 120.515 44.4835C121.809 44.8734 123.174 45.1685 124.53 44.9604C125.946 44.8444 127.415 44.3109 128.327 43.1726C129.371 41.9145 129.698 40.2439 129.885 38.663L129.734 38.7025C129.836 38.6037 129.929 38.4891 129.933 38.3363C130.102 37.4694 130.019 36.5854 130.062 35.7093C130.021 29.3829 130.063 23.0566 130.05 16.7302C130.081 15.9029 129.987 15.0729 130.063 14.2468C132.343 14.2402 134.624 14.2416 136.904 14.2468C136.958 18.1017 136.911 21.9591 136.927 25.814C136.923 30.2511 136.935 34.687 136.925 39.1241C136.65 42.6693 135.15 46.1382 132.624 48.6611C132.238 49.0827 131.778 49.4252 131.313 49.7532C131.15 49.831 131.102 50.0022 131.048 50.1577C131.058 50.0958 131.075 49.9719 131.083 49.91C127.79 52.2221 123.427 52.6542 119.604 51.5871L119.533 51.6583L119.475 51.7294C119.334 51.7558 119.293 51.6833 119.351 51.5107C117.268 50.8046 115.373 49.553 113.928 47.893C111.536 45.1264 110.199 41.4665 110.253 37.808C110.254 30.562 110.255 23.3161 110.255 16.0702C110.259 15.4642 110.23 14.8555 110.3 14.2521Z" fill="white"/>
<path d="M22.1445 22.365C22.4488 21.2504 23.9072 20.6418 24.9098 21.228C25.5553 21.5205 25.8847 22.1832 26.0573 22.834C25.9993 23.6561 25.6133 24.5651 24.7688 24.8378C23.8018 25.3108 22.6635 24.7364 22.1655 23.8563C22.0865 23.3623 21.9613 22.8524 22.1445 22.365Z" fill="white"/>
</svg>
