<svg width="260" height="146" viewBox="0 0 260 146" fill="none" xmlns="http://www.w3.org/2000/svg">
<path d="M98.3779 144.054V0.501912H140.54V16.5637H114.942V29.6139H129.498V43.166H114.942V128.996H140.54V144.054H98.3779Z" fill="white"/>
<path d="M242.934 144.054V0.501912H260V144.054H242.934Z" fill="white"/>
<path d="M183.204 0.501912V15.0579C180.193 15.0579 175.173 15.4595 172.162 16.0618C169.652 16.5637 165.592 19.1483 164.131 21.583C162.625 24.0927 161.621 28.1081 164.131 35.6371C166.641 43.166 172.664 51.6989 175.675 56.2162C178.542 60.516 192.641 78.8031 194.247 90.8494C195.251 98.3784 195.251 108.417 190.733 118.958C186.216 129.498 175.675 138.533 169.652 141.544C165.268 143.736 154.26 145.56 149.073 145.56V128.996C150.913 128.996 156 128.595 161.621 126.988C168.648 124.981 173.76 118.742 176.679 111.931C179.691 104.904 178.687 92.3552 176.679 86.3321C174.671 80.3089 157.104 53.2046 154.594 48.6873C152.085 44.1699 147.567 32.6255 149.073 23.0888C150.579 13.5521 155.951 7.35243 162.625 4.01544C168.648 1.00386 177.85 0.334607 183.204 0.501912Z" fill="white"/>
<path d="M225.673 0.0237621V14.5798C222.661 14.5798 217.642 14.9813 214.63 15.5836C212.121 16.0856 208.06 18.6701 206.6 21.1049C205.094 23.6145 204.09 27.63 206.6 35.1589C209.109 42.6879 215.132 51.2207 218.144 55.7381C221.01 60.0379 235.109 78.325 236.715 90.3713C237.719 97.9003 237.719 107.939 233.202 118.479C228.684 129.02 218.144 138.055 212.121 141.066C207.737 143.258 196.728 145.082 191.542 145.082V128.518C193.382 128.518 198.468 128.116 204.09 126.51C211.117 124.503 216.228 118.264 219.148 111.452C222.159 104.425 221.156 91.8771 219.148 85.8539C217.14 79.8308 199.572 52.7265 197.063 48.2091C194.553 43.6917 190.036 32.1473 191.542 22.6107C193.047 13.074 198.42 6.87428 205.094 3.53729C211.117 0.525708 220.319 -0.143543 225.673 0.0237621Z" fill="white"/>
<path d="M0 72.278C0 112.196 32.36 144.556 72.278 144.556H89.3436V65.251H47.6834V80.3089H76.2934V131.431C75.2959 131.481 74.2918 131.506 73.2819 131.506C40.5713 131.506 14.0541 104.989 14.0541 72.278C14.0541 39.5674 40.5713 13.0502 73.2819 13.0502H89.3436V6.5251V0H72.278C32.36 0 0 32.36 0 72.278Z" fill="white"/>
</svg>
