<svg width="260" height="51" viewBox="0 0 260 51" fill="none" xmlns="http://www.w3.org/2000/svg">
<path d="M25.4023 38.3525H16.9349V26.3985C16.9349 24.4061 16.6858 22.9119 16.1877 22.1647C15.4406 21.1686 14.4444 20.6705 12.9502 20.6705C11.705 20.6705 10.7088 21.1686 9.71264 21.9157C8.96551 22.6628 8.46743 23.908 8.46743 25.6513V38.3525H0V0H8.96551V17.682C9.96168 16.4368 10.7088 15.6897 11.705 15.1916C12.9502 14.4444 14.6935 13.9464 16.6858 13.9464C19.1762 13.9464 21.1686 14.6935 22.9119 15.9387C24.6552 17.4329 25.6513 19.9234 25.6513 22.9119V38.3525H25.4023Z" fill="white"/>
<path d="M58.0285 38.3527H49.561V35.6132C48.8139 36.6094 48.0668 37.3565 47.0706 37.8546C45.5764 38.6017 44.0821 39.0998 42.0898 39.0998C39.1013 39.0998 36.6108 38.1036 34.1204 36.1113C31.3809 33.6209 30.1357 30.3833 30.1357 26.3987C30.1357 22.414 31.63 19.1764 34.3695 16.686C36.6108 14.6937 39.1013 13.6975 42.0898 13.6975C43.8331 13.6975 45.3273 13.9466 46.8216 14.6937C47.5687 15.1918 48.5649 15.6898 49.561 16.686V14.6937H58.0285V38.3527ZM49.8101 26.3987C49.8101 24.9044 49.312 23.6592 48.3158 22.663C47.3197 21.6669 46.0744 21.1688 44.5802 21.1688C42.8369 21.1688 41.5917 21.9159 40.5955 23.1611C39.8484 24.1573 39.3503 25.4025 39.3503 26.6477C39.3503 27.8929 39.8484 29.1381 40.5955 30.1343C41.5917 31.3795 43.0859 32.1266 44.5802 32.1266C46.0744 32.1266 47.3197 31.6285 48.3158 30.6324C49.312 29.6362 49.8101 27.8929 49.8101 26.3987Z" fill="white"/>
<path d="M88.6601 38.3528H80.1926V26.3988C80.1926 24.4064 79.9436 22.9122 79.4455 22.165C78.6984 21.1689 77.7022 20.6708 76.208 20.6708C74.9628 20.6708 73.9666 21.1689 72.9704 21.916C72.2233 22.6631 71.7252 23.9083 71.7252 25.6516V38.3528H63.7559V14.6938H72.2233V17.6823C73.2195 16.4371 73.9666 15.69 74.9628 15.1919C76.208 14.4447 77.9513 13.9467 79.9436 13.9467C82.434 13.9467 84.6754 14.6938 86.1696 15.939C87.6639 17.6823 88.6601 20.1727 88.6601 23.1612V38.3528Z" fill="white"/>
<path d="M113.563 30.3834C113.563 32.8739 112.567 34.8662 110.824 36.6095C108.831 38.3528 105.843 39.3489 102.356 39.3489C99.1186 39.3489 95.8811 38.3528 92.8926 36.6095L95.8811 30.6325C98.3715 32.1267 100.613 32.8739 102.605 32.8739C104.349 32.8739 105.345 32.3758 105.345 31.1306C105.345 30.3834 105.096 30.1344 104.349 29.6363C103.85 29.3873 103.103 29.1382 101.609 28.8892C100.115 28.6401 99.1186 28.3911 98.6206 28.1421C96.8773 27.3949 95.8811 26.3988 95.134 25.1536C94.8849 24.4064 94.6359 23.4103 94.6359 22.4141C94.6359 20.4218 95.383 18.4294 96.8773 16.9352C98.6206 14.9428 101.609 13.9467 105.345 13.9467C108.084 13.9467 110.575 14.4447 113.065 15.4409L110.326 20.9198C108.831 20.1727 107.337 19.6746 105.843 19.6746C104.099 19.6746 103.352 20.1727 103.352 21.4179C103.352 21.916 103.601 22.4141 104.349 22.6631C104.598 22.9122 105.594 23.1612 107.088 23.4103C109.329 23.9083 110.824 24.6555 111.82 25.6516C113.065 26.6478 113.563 28.3911 113.563 30.3834Z" fill="white"/>
<path d="M144.444 36.6095C144.444 38.6018 144.195 40.3451 143.946 41.5903C143.448 43.5827 142.203 45.575 140.46 47.0693C137.969 49.0616 134.732 50.0578 130.747 50.0578C126.513 50.0578 123.276 49.0616 120.785 46.8202C119.042 45.326 118.046 43.8317 117.548 42.0884C117.548 41.8394 117.548 41.5903 117.299 41.0922H126.762C127.011 41.8394 127.51 42.3375 127.759 42.8355C128.506 43.3336 129.502 43.5827 130.498 43.5827C132.49 43.5827 133.985 42.8355 134.981 41.5903C135.728 40.8432 135.977 39.598 135.977 37.8547V35.6133C134.981 36.6095 134.234 37.1076 133.487 37.6057C131.992 38.3528 130.498 38.8509 128.506 38.8509C126.015 38.8509 124.023 38.3528 122.031 37.1076C120.038 35.8624 118.793 34.1191 117.797 31.8777C117.299 30.3834 117.05 28.6401 117.05 26.8968C117.05 22.9122 118.295 19.9237 120.785 17.4332C123.027 15.1919 125.766 13.9467 129.004 13.9467C130.747 13.9467 132.241 14.1957 133.487 14.9428C134.234 15.4409 135.23 16.188 135.977 16.9352V14.4447H144.444V36.6095ZM136.475 26.3988C136.475 24.9045 135.977 23.6593 134.981 22.4141C133.985 21.4179 132.49 20.9198 130.996 20.9198C129.253 20.9198 128.008 21.667 126.762 22.9122C126.015 23.9083 125.517 25.1536 125.517 26.3988C125.517 27.893 126.015 29.1382 127.011 30.3834C128.008 31.3796 129.253 32.1267 130.747 32.1267C132.241 32.1267 133.487 31.6286 134.483 30.3834C135.977 29.1382 136.475 27.893 136.475 26.3988Z" fill="white"/>
<path d="M167.853 22.4135C166.608 21.9154 165.612 21.6663 164.366 21.6663C161.627 21.6663 159.884 22.9115 159.136 25.1529C158.887 25.9 158.638 27.1453 158.638 28.3905V38.3522H150.171V14.6932H158.638V18.4288C159.635 16.9345 160.382 15.9384 161.378 15.4403C162.872 14.6932 164.366 14.1951 166.359 14.1951C166.857 14.1951 167.355 14.1951 168.102 14.1951V22.4135H167.853Z" fill="white"/>
<path d="M199.236 26.3987C199.236 29.6362 198.239 32.6247 195.998 34.8661C193.259 37.6056 189.772 39.0998 185.04 39.0998C180.308 39.0998 176.573 37.6056 174.082 34.8661C171.841 32.6247 170.845 29.6362 170.845 26.1496C170.845 23.1611 171.841 20.4216 174.082 17.9312C176.822 14.9427 180.557 13.6975 185.289 13.6975C189.772 13.6975 193.259 15.1918 195.998 17.9312C198.239 20.4216 199.236 23.1611 199.236 26.3987ZM190.519 26.3987C190.519 24.9044 190.021 23.6592 189.025 22.414C188.029 21.4178 186.534 20.9197 185.04 20.9197C183.297 20.9197 181.803 21.6669 180.806 22.9121C179.81 23.9082 179.561 25.1534 179.561 26.3987C179.561 27.6439 180.059 28.8891 180.806 29.8852C181.803 31.1305 183.297 31.8776 185.04 31.8776C186.534 31.8776 187.78 31.3795 189.025 30.3833C190.021 29.3872 190.519 28.142 190.519 26.3987Z" fill="white"/>
<path d="M229.119 38.3525H220.652V26.3985C220.652 24.4061 220.403 22.9119 219.905 22.1647C219.157 21.1686 218.161 20.6705 216.667 20.6705C215.422 20.6705 214.426 21.1686 213.429 21.9157C212.682 22.6628 212.184 23.908 212.184 25.6513V38.3525H203.717V0H212.184V17.682C213.18 16.4368 213.928 15.6897 214.924 15.1916C216.169 14.4444 217.912 13.9464 219.905 13.9464C222.395 13.9464 224.387 14.6935 226.131 15.9387C227.874 17.4329 228.87 19.9234 228.87 22.9119V38.3525H229.119Z" fill="white"/>
<path d="M260 28.1421H242.318C242.318 31.6286 244.061 33.3719 247.548 33.3719C249.291 33.3719 250.536 32.6248 251.533 31.1306H259.751C259.004 33.3719 258.257 34.8662 257.012 36.1114C254.77 38.3528 251.782 39.3489 247.797 39.3489C242.816 39.3489 239.33 37.8547 236.839 34.8662C235.096 32.6248 234.1 29.8854 234.1 26.6478C234.1 22.9122 235.345 19.6746 237.586 17.4332C239.828 15.1919 243.065 13.9467 247.299 13.9467C252.529 13.9467 256.264 15.939 258.257 19.6746C259.502 21.667 260 24.1574 260 27.1459V28.1421V28.1421ZM252.031 23.4103C251.533 20.6708 249.789 19.4256 247.299 19.4256C245.805 19.4256 244.808 19.9237 243.812 20.6708C243.065 21.4179 242.567 22.165 242.567 23.4103H252.031Z" fill="white"/>
</svg>
